<?xml version="1.0" encoding="UTF-8" standalone="no"?>
<!-- Created with Inkscape (http://www.inkscape.org/) -->

<svg
   xmlns:dc="http://purl.org/dc/elements/1.1/"
   xmlns:cc="http://creativecommons.org/ns#"
   xmlns:rdf="http://www.w3.org/1999/02/22-rdf-syntax-ns#"
   xmlns:svg="http://www.w3.org/2000/svg"
   xmlns="http://www.w3.org/2000/svg"
   xmlns:xlink="http://www.w3.org/1999/xlink"
   xmlns:sodipodi="http://sodipodi.sourceforge.net/DTD/sodipodi-0.dtd"
   xmlns:inkscape="http://www.inkscape.org/namespaces/inkscape"
   width="49.925842cm"
   height="42.868011cm"
   viewBox="0 0 499.25842 428.6801"
   version="1.1"
   id="svg8"
   inkscape:version="0.92.3 (2405546, 2018-03-11)"
   sodipodi:docname="logo_MASTER_triangle_clean_transparent_red-yellow.svg">
  <defs
     id="defs2">
    <inkscape:path-effect
       effect="mirror_symmetry"
       start_point="436.00351,-537.83073"
       end_point="436.00351,-110.65013"
       center_point="436.00351,-324.24043"
       id="path-effect4581"
       is_visible="true"
       mode="free"
       discard_orig_path="false"
       fuse_paths="false"
       oposite_fuse="false" />
    <!--<clipPath
       clipPathUnits="userSpaceOnUse"
       id="clipPath4541">
      <use
         x="0"
         y="0"
         xlink:href="#g4537"
         id="use4543"
         width="100%"
         height="100%" />
    </clipPath>-->
  </defs>
  <sodipodi:namedview
     id="base"
     pagecolor="#ffffff"
     bordercolor="#666666"
     borderopacity="1.0"
     inkscape:pageopacity="0"
     inkscape:pageshadow="2"
     inkscape:zoom="0.35335142"
     inkscape:cx="731.85024"
     inkscape:cy="1007.342"
     inkscape:document-units="mm"
     inkscape:current-layer="layer4"
     showgrid="false"
     units="cm"
     inkscape:window-width="1680"
     inkscape:window-height="987"
     inkscape:window-x="-8"
     inkscape:window-y="-8"
     inkscape:window-maximized="1"
     inkscape:pagecheckerboard="true"
     inkscape:snap-global="false"
     fit-margin-top="0"
     fit-margin-left="0"
     fit-margin-right="0"
     fit-margin-bottom="0" />
  <metadata
     id="metadata5">
    <rdf:RDF>
      <cc:Work
         rdf:about="">
        <dc:format>image/svg+xml</dc:format>
        <dc:type
           rdf:resource="http://purl.org/dc/dcmitype/StillImage" />
        <dc:title></dc:title>
      </cc:Work>
    </rdf:RDF>
  </metadata>
  <g
     inkscape:label="Logo"
     inkscape:groupmode="layer"
     id="layer1"
     transform="translate(-186.1779,538.54611)"
     style="display:inline">
    <g
       inkscape:groupmode="layer"
       id="layer5"
       inkscape:label="triangle">
      <g
         id="g4539"
         clip-path="url(#clipPath4541)">
        <g
           inkscape:label="Clip"
           id="g4537"
           inkscape:path-effect="#path-effect4581">
          <path
             sodipodi:nodetypes="cascaaaccccccscc"
             inkscape:connector-curvature="0"
             id="path4528"
             d="m 205.0192,-115.58453 c -3.01513,-1.76853 -10.02789,-8.09074 -12.20114,-13.84554 -5.20434,-13.78118 -8.49221,-28.39732 0.008,-44.19338 8.67718,-16.12459 206.28864,-344.29136 210.66262,-349.84581 1.47468,-1.68787 2.9875,-3.41304 4.70098,-4.88729 1.9184,-1.65057 4.00337,-3.12391 6.19603,-4.38759 2.50913,-1.44607 5.10638,-2.85069 7.89894,-3.61777 4.43477,-1.21818 11.74694,-1.55403 13.7187,-1.46881 v 40.79582 l -207.62024,345.46784 h 207.62024 v 40.3915 H 218.4244 c -3.6928,-0.1167 -6.11596,-1.2185 -7.0122,-1.55634 -2.18359,-0.8231 -4.1201,-1.62785 -6.39318,-2.85263 z m 461.96862,0 c 3.01513,-1.76853 10.02789,-8.09074 12.20114,-13.84554 5.20434,-13.78118 8.49221,-28.39732 -0.008,-44.19338 -8.67718,-16.12459 -206.28864,-344.29136 -210.66262,-349.84581 -1.47468,-1.68787 -2.9875,-3.41304 -4.70098,-4.88729 -1.9184,-1.65057 -4.00337,-3.12391 -6.19603,-4.38759 -2.50913,-1.44607 -5.10638,-2.85069 -7.89894,-3.61777 -4.43477,-1.21818 -11.74694,-1.55403 -13.7187,-1.46881 v 40.79582 l 207.62024,345.46784 H 436.00369 v 40.3915 h 217.57893 c 3.6928,-0.1167 6.11596,-1.2185 7.0122,-1.55634 2.18359,-0.8231 4.1201,-1.62785 6.39318,-2.85263 z"
             style="fill:#ff0000;stroke:none;stroke-width:1.49971592"
             inkscape:original-d="m 205.0192,-115.58453 c -3.01513,-1.76853 -10.02789,-8.09074 -12.20114,-13.84554 -5.20434,-13.78118 -8.49221,-28.39732 0.008,-44.19338 8.67718,-16.12459 206.28864,-344.29136 210.66262,-349.84581 1.47468,-1.68787 2.9875,-3.41304 4.70098,-4.88729 1.9184,-1.65057 4.00337,-3.12391 6.19603,-4.38759 2.50913,-1.44607 5.10638,-2.85069 7.89894,-3.61777 4.43477,-1.21818 11.74694,-1.55403 13.7187,-1.46881 v 40.79582 l -207.62024,345.46784 h 207.62024 v 40.3915 H 218.4244 c -3.6928,-0.1167 -6.11596,-1.2185 -7.0122,-1.55634 -2.18359,-0.8231 -4.1201,-1.62785 -6.39318,-2.85263 z" />
        </g>
      </g>
    </g>
    <g
       inkscape:groupmode="layer"
       id="layer6"
       inkscape:label="bulb_contacts"
       style="display:inline">
      <path
         transform="translate(1.0416667e-6,9.3749999e-6)"
         id="path4670"
         d="m 460.65076,-220.7128 h -51.21908 c -2.82797,0 -5.12192,2.2946 -5.12192,5.12191 0,2.8273 2.29395,5.12207 5.12192,5.12207 h 51.21908 c 2.82791,0 5.1219,-2.29477 5.1219,-5.12207 0,-2.82731 -2.29399,-5.12191 -5.1219,-5.12191 z m 0,20.48779 h -51.21908 c -2.82797,0 -5.12192,2.29476 -5.12192,5.12207 0,2.8273 2.29395,5.12191 5.12192,5.12191 h 51.21908 c 2.82791,0 5.1219,-2.29461 5.1219,-5.12191 0,-2.82731 -2.29399,-5.12207 -5.1219,-5.12207 z m 2.56095,20.48795 h -56.34099 l 14.86262,16.9946 c 1.9472,2.21271 4.76376,3.49319 7.7138,3.49319 h 11.19785 c 2.95011,0 5.75689,-1.27966 7.70244,-3.49319 z"
         inkscape:connector-curvature="0"
         style="fill:#ffff00;stroke-width:10.24393272;stroke:none"
         sodipodi:nodetypes="sssssssssssssscccsscc" />
    </g>
    <g
       inkscape:groupmode="layer"
       id="layer4"
       inkscape:label="bulb_head"
       style="display:inline">
      <path
         transform="translate(1.0416667e-6,9.3749999e-6)"
         style="fill:#ffff00;stroke:none;stroke-width:0.54317015"
         d="m 401.91238,-235.51773 c -1.39726,-12.64082 -4.95171,-21.43312 -17.62188,-43.5894 -11.41608,-19.96327 -16.57348,-31.71441 -19.15509,-43.64495 -1.60724,-7.4276 -1.72089,-22.19602 -0.22408,-29.11785 5.91333,-27.3455 25.70039,-46.64686 54.1065,-52.77835 7.58554,-1.63733 23.2252,-1.7973 30.564,-0.31262 29.31551,5.93076 49.57527,25.28001 55.58925,53.09097 1.49681,6.92183 1.38319,21.69025 -0.22406,29.11785 -2.56197,11.83973 -7.10963,22.39934 -17.50982,40.65751 -13.95792,24.50404 -17.86916,33.95943 -19.26649,46.57684 l -0.34589,3.12323 h -32.7836 -32.78363 z m 22.26543,-40.55936 c -1.79245,-1.00407 -4.72557,-2.64578 -6.51804,-3.64825 -1.89688,-1.06084 -5.5513,-4.09363 -8.74338,-7.25605 -6.02788,-5.97188 -8.64639,-10.34163 -10.20771,-17.03447 -1.19726,-5.13216 -0.16931,-6.73395 1.81959,-2.83534 2.53753,4.97391 10.72215,11.82418 13.56116,11.35019 0.96568,-0.16122 0.90824,-0.4825 -0.85619,-4.78976 -3.76233,-9.18435 -4.95306,-17.71538 -3.40831,-24.41859 0.82347,-3.57344 6.64721,-18.00063 7.07799,-17.53446 0.20358,0.22028 1.01942,3.82251 1.81302,8.00492 1.92931,10.16793 3.29588,13.99902 6.08881,17.0698 2.21314,2.43329 2.26512,2.45643 2.53095,1.1264 0.14926,-0.74686 0.65294,-3.27037 1.11931,-5.6078 0.80386,-4.02907 1.88787,-6.67385 8.49315,-20.7215 3.8112,-8.10549 4.30609,-7.17599 2.6851,5.04319 -1.76185,13.28119 -1.05492,20.61654 2.78119,28.85733 1.45382,3.12315 5.25159,7.63754 6.42514,7.63754 0.24472,0 0.56919,-2.13873 0.72103,-4.75274 0.19962,-3.43653 0.84422,-6.52024 2.32759,-11.13498 1.83977,-5.72361 2.97872,-7.85294 2.97872,-5.56897 0,0.44733 1.72274,4.71812 3.82831,9.49068 7.23783,16.40542 7.10622,21.44677 -0.85027,32.56715 -2.2289,3.11517 -3.9488,5.76765 -3.82205,5.89443 0.41499,0.41498 5.91263,-1.59741 10.4902,-3.83992 9.86899,-4.8347 16.21422,-12.30228 18.94533,-22.29645 1.32406,-4.84527 1.55369,-13.07989 0.5101,-18.2937 -1.30071,-6.49832 -4.43627,-12.78011 -7.96109,-15.94924 -1.53464,-1.37976 -2.95894,-2.50866 -3.16511,-2.50866 -0.20618,0 -0.40009,2.01652 -0.43092,4.48116 -0.0488,3.90683 -1.74466,13.03341 -2.57625,13.86501 -0.47204,0.47204 -2.38503,-4.31492 -3.33672,-8.34969 -0.48652,-2.0625 -1.16391,-6.72888 -1.50532,-10.36969 l -0.62074,-6.61967 -4.52129,4.3112 c -2.48671,2.37115 -4.74766,4.31119 -5.02432,4.31119 -0.76009,0 -0.626,-1.06529 0.83146,-6.60544 3.70786,-14.09431 2.95932,-26.18302 -2.27966,-36.81666 -2.1484,-4.36066 -8.38679,-11.2483 -12.0228,-13.27408 l -1.83299,-1.02124 0.27333,1.836 c 1.57623,10.58693 1.58989,10.79719 0.94835,14.60065 -0.44901,2.66192 -1.4824,5.44064 -3.38862,9.11185 -1.50844,2.90509 -3.66301,7.06654 -4.78794,9.24766 -1.12493,2.1811 -2.18338,3.74231 -2.35209,3.46931 -0.16873,-0.273 -1.16122,-4.0677 -2.20554,-8.43266 -2.16904,-9.06605 -3.6375,-12.35767 -6.77928,-15.19608 -3.04501,-2.751 -3.50179,-2.61833 -3.06348,0.88982 0.47742,3.82106 -0.42185,9.13052 -2.14188,12.64617 -0.76452,1.56256 -3.24721,5.36624 -5.51714,8.45267 -4.90011,6.66266 -8.04838,12.97783 -8.89018,17.83301 -1.28905,7.43491 -2.20481,8.33144 -3.21092,3.1436 -1.39554,-7.19592 -1.7672,-8.5753 -2.3104,-8.5753 -0.87418,0 -4.14205,3.78924 -5.85543,6.78963 -3.77864,6.61703 -5.34113,14.67436 -4.35891,22.47779 2.12896,16.91383 11.46637,29.84182 26.70197,36.96979 5.18089,2.42387 9.53931,3.71838 12.67952,3.76593 l 2.17268,0.0329 z"
         id="path4681"
         inkscape:connector-curvature="0" />
    </g>
    <g
       inkscape:groupmode="layer"
       id="layer2"
       inkscape:label="fire"
       style="display:inline">
      <path
         transform="translate(1.0416667e-6,9.3749999e-6)"
         style="fill:#ff0000;stroke:none;stroke-width:0.54317015"
         d="m 442.97191,-387.106 c 1.11511,6.3946 0.65388,13.22973 -2.65312,18.94852 -2.53109,5.18373 -4.99278,10.54349 -8.39165,15.19022 -1.94757,1.51451 -4.7456,-0.3408 -4.66557,-2.65144 -2.06764,-6.56257 -2.29257,-13.90795 -6.495,-19.55718 0.0359,7.66996 -3.78707,14.69661 -8.5973,20.4297 -4.6398,6.38891 -8.33478,13.76049 -9.21657,21.75854 -0.42775,2.22075 -3.28673,4.34136 -5.20947,2.40229 -2.32177,-2.48827 -1.82111,-6.15221 -2.80554,-9.15825 -8.30594,10.05115 -8.41769,24.42959 -3.80177,36.11477 3.68167,9.44016 10.94473,17.32214 19.80387,22.16427 -7.94145,-6.53256 -15.00066,-15.66755 -15.34671,-26.34137 -0.18286,-2.57546 2.94473,-4.79393 5.03782,-2.78008 2.48587,2.0072 2.99794,5.57549 5.73674,7.37933 1.33221,1.37826 2.71374,2.73339 4.31755,3.79684 -3.7187,-9.59076 -6.10096,-20.73497 -1.79592,-30.55374 1.89648,-4.86153 3.31571,-10.27382 6.68098,-14.31192 2.3696,-1.32288 4.36431,1.57784 4.32493,3.71882 1.84814,6.85952 1.82467,14.15989 5.61847,20.28597 2.04559,-10.03077 7.32451,-18.9713 11.67799,-28.10305 1.20074,-1.99892 4.91413,-2.252 5.42382,0.41639 1.07742,5.56381 -1.10435,11.09303 -1.20812,16.66324 -0.75059,8.7706 0.0896,18.49306 5.52978,25.42727 0.86661,-6.46171 2.24382,-13.12971 5.57576,-18.78957 1.61029,-1.77692 4.79442,-0.49088 4.821,1.8898 2.83559,9.41539 9.11952,17.99109 9.04327,28.17286 0.16008,5.98657 -3.2176,11.23377 -6.52601,15.93885 10.12346,-4.01591 19.23273,-12.2934 21.24689,-23.31654 2.29431,-10.2528 0.75368,-21.97569 -6.28372,-30.2187 -0.47754,5.1899 -0.6823,10.87667 -3.49379,15.38777 -2.1758,1.6877 -4.75339,-0.78988 -5.17005,-2.97144 -2.5727,-5.99517 -3.27727,-12.55849 -3.87815,-18.99161 -2.379,2.212 -4.75999,5.60363 -8.25976,5.6965 -3.05863,-0.93941 -2.34668,-4.83624 -1.47753,-7.11423 3.88812,-13.38642 4.63875,-28.88711 -3.52579,-40.82964 -1.74993,-2.50429 -3.83045,-4.77356 -6.14574,-6.765 l 0.067,0.41512 z"
         id="path4681-0"
         inkscape:connector-curvature="0" />
    </g>
  </g>
</svg>
